Coordinates
version=1
nRows=15
nColumns=46
inDegrees=yes

Units are S.I. units (second, meters, Newtons, ...)
Angles are in degrees.

endheader
time	pelvis_tilt	pelvis_list	pelvis_rotation	pelvis_tx	pelvis_ty	pelvis_tz	bb_angle	bb_tx	bb_ty	bb_tz	hip_flexion_r	hip_adduction_r	hip_rotation_r	knee_angle_r	knee_angle_r_beta	ankle_angle_r	subtalar_angle_r	mtp_angle_r	crank_angle_r	hip_flexion_l	hip_adduction_l	hip_rotation_l	knee_angle_l	knee_angle_l_beta	ankle_angle_l	subtalar_angle_l	mtp_angle_l	crank_angle_l	lumbar_extension	lumbar_bending	lumbar_rotation	arm_flex_r	arm_add_r	arm_rot_r	elbow_flex_r	pro_sup_r	wrist_flex_r	wrist_dev_r	arm_flex_l	arm_add_l	arm_rot_l	elbow_flex_l	pro_sup_l	wrist_flex_l	wrist_dev_l
      5.00000000	    -23.11179160	     -4.21065328	     -3.95505760	      0.08131174	      1.11598516	     -0.27662112	      0.00000000	      0.50000000	      0.00000000	      0.25000000	     93.61681378	      6.48896531	      4.35174164	    102.57152510	      1.79021083	      6.11121195	    -16.39330778	      0.00000000	      0.00000000	     49.57169477	    -11.40869302	     -4.44255202	     44.69694857	      0.78010892	    -17.91329664	    -10.80783336	      0.00000000	      0.00000000	    -65.31955279	      2.47603888	      5.49993361	     89.56353778	    -30.16678310	     27.78751244	     92.22574078	     44.32223368	      0.00000000	      0.00000000	     80.55882248	    -43.78130302	     18.80585759	     97.48432930	     47.88807890	      0.00000000	      0.00000000
      5.00500000	    -23.23032367	     -4.33337709	     -4.08770197	      0.08063491	      1.11646822	     -0.27648781	      0.00000000	      0.50000000	      0.00000000	      0.25000000	     92.63516943	      6.62694844	      4.35159161	    100.38866034	      1.75211265	      8.04497437	    -15.91065305	      0.00000000	      0.00000000	     51.00497051	    -11.50365956	     -3.42878445	     47.59192487	      0.83063579	    -18.75691012	    -11.73311443	      0.00000000	      0.00000000	    -65.36905391	      2.49854384	      5.68217005	     89.55620725	    -29.76201345	     27.25508028	     92.38491035	     43.92481584	      0.00000000	      0.00000000	     81.69925560	    -44.34445838	     20.31587615	     96.72317024	     47.93322425	      0.00000000	      0.00000000
      5.01000000	    -23.14837586	     -4.16077904	     -4.40382700	      0.08039296	      1.11716047	     -0.27611016	      0.00000000	      0.50000000	      0.00000000	      0.25000000	     91.32334574	      6.91613070	      4.62176978	     98.02190799	      1.71080503	      9.50663570	    -16.03166476	      0.00000000	      0.00000000	     52.10261021	    -11.50956812	     -2.78934992	     50.38403568	      0.87936731	    -19.69393023	    -12.61653552	      0.00000000	      0.00000000	    -65.56158236	      2.15472283	      5.59563915	     89.56247654	    -29.57148791	     27.35278947	     92.48660453	     43.81873688	      0.00000000	      0.00000000	     82.12175500	    -44.51403520	     20.45701119	     96.62864208	     47.94296648	      0.00000000	      0.00000000
      5.01500000	    -23.22813406	     -4.23920481	     -4.53981704	      0.08000570	      1.11728160	     -0.27603286	      0.00000000	      0.50000000	      0.00000000	      0.25000000	     90.08383152	      7.00448568	      4.64809690	     95.49179413	      1.66664622	     10.86232577	    -16.05308030	      0.00000000	      0.00000000	     53.59483541	    -11.53130126	     -1.81040800	     53.35711672	      0.93125737	    -20.70095208	    -13.40197636	      0.00000000	      0.00000000	    -65.57652261	      2.19905888	      5.49050031	     89.56622161	    -29.13285215	     27.52946603	     92.57887031	     43.27692894	      0.00000000	      0.00000000	     82.40468798	    -45.38798900	     21.08760070	     96.66148755	     48.08524468	      0.00000000	      0.00000000
      5.02000000	    -23.05406242	     -3.91847060	     -4.77103592	      0.07993718	      1.11755036	     -0.27579642	      0.00000000	      0.50000000	      0.00000000	      0.25000000	     88.56397687	      7.10961422	      5.05583245	     92.91061391	      1.62159612	     11.98595053	    -16.22291751	      0.00000000	      0.00000000	     54.67367375	    -11.34068940	     -1.28892050	     56.21434720	      0.98112545	    -21.53418378	    -13.87603903	      0.00000000	      0.00000000	    -65.77559241	      1.85324083	      5.21366504	     89.56336910	    -29.00063983	     27.63045978	     92.68166194	     43.21558789	      0.00000000	      0.00000000	     82.55673900	    -45.49582339	     21.04597828	     96.63463302	     48.08735959	      0.00000000	      0.00000000
      5.02500000	    -22.94967368	     -3.90588855	     -5.00262091	      0.07974677	      1.11750675	     -0.27547095	      0.00000000	      0.50000000	      0.00000000	      0.25000000	     87.03642079	      7.23443819	      5.05797751	     90.07448550	      1.57209634	     12.96604238	    -16.22651498	      0.00000000	      0.00000000	     55.94500144	    -11.35609312	     -0.47860121	     59.13467687	      1.03209481	    -22.40567029	    -14.44510594	      0.00000000	      0.00000000	    -65.89550817	      1.72319716	      5.18798811	     89.57176705	    -28.69843851	     27.79643074	     92.74661544	     43.11836192	      0.00000000	      0.00000000	     82.69862336	    -45.84100057	     21.07412452	     96.62708956	     48.10422668	      0.00000000	      0.00000000
      5.03000000	    -22.98421244	     -3.83346343	     -5.15557998	      0.07953090	      1.11678958	     -0.27541034	      0.00000000	      0.50000000	      0.00000000	      0.25000000	     85.69804433	      7.21964238	      5.11447731	     87.29165317	      1.52352676	     13.58475668	    -16.29580430	      0.00000000	      0.00000000	     57.42211565	    -11.21087283	      0.38540542	     62.08217175	      1.08353830	    -23.12057452	    -14.62974338	      0.00000000	      0.00000000	    -65.80433343	      1.76224662	      4.14741904	     89.58078998	    -26.77281337	     28.01630628	     92.14243993	     41.33395067	      0.00000000	      0.00000000	     82.19305163	    -48.07827358	     21.04185284	     97.50325777	     48.49898169	      0.00000000	      0.00000000
      5.03500000	    -22.75859732	     -3.63824123	     -5.31933911	      0.07939746	      1.11616353	     -0.27523699	      0.00000000	      0.50000000	      0.00000000	      0.25000000	     84.10085487	      7.18071536	      5.30356336	     84.54757137	      1.47563349	     13.95112310	    -16.28360977	      0.00000000	      0.00000000	     58.59384922	    -11.01163963	      1.01732508	     64.95619538	      1.13369948	    -23.85899871	    -14.86463975	      0.00000000	      0.00000000	    -65.90603035	      1.58318215	      4.01388476	     89.57706092	    -26.59364189	     28.21624778	     92.14488406	     41.15743704	      0.00000000	      0.00000000	     82.12436467	    -48.20833715	     21.13268179	     97.40977295	     48.51994085	      0.00000000	      0.00000000
      5.04000000	    -22.60478706	     -3.45631503	     -5.41960531	      0.07928335	      1.11513186	     -0.27510881	      0.00000000	      0.50000000	      0.00000000	      0.25000000	     82.61852413	      7.03518819	      5.34707241	     81.80682597	      1.42779846	     14.04456813	    -16.30060758	      0.00000000	      0.00000000	     59.86756588	    -10.74516868	      1.69248069	     67.79500552	      1.18324606	    -24.44567630	    -14.90926282	      0.00000000	      0.00000000	    -65.87603899	      1.48229905	      3.69857498	     89.57290517	    -26.16306265	     28.44252483	     91.93348642	     40.74842296	      0.00000000	      0.00000000	     82.01249760	    -48.68582159	     21.33320434	     97.44907456	     48.60487651	      0.00000000	      0.00000000
      5.04500000	    -22.26415775	     -3.10850020	     -5.48609763	      0.07922932	      1.11405360	     -0.27520307	      0.00000000	      0.50000000	      0.00000000	      0.25000000	     81.00291205	      6.76271717	      5.51465439	     79.14509409	      1.38134248	     14.14451719	    -16.18134914	      0.00000000	      0.00000000	     60.90124476	    -10.33187085	      2.11594069	     70.54782166	      1.23129177	    -25.08104037	    -15.18049918	      0.00000000	      0.00000000	    -65.99712152	      1.28473712	      3.33893298	     89.56319928	    -25.98971080	     28.58025567	     91.89017806	     40.66301538	      0.00000000	      0.00000000	     82.00614844	    -48.79846760	     21.42692574	     97.41217600	     48.62095160	      0.00000000	      0.00000000
      5.05000000	    -21.92453168	     -2.40527732	     -5.47135295	      0.07917736	      1.11262184	     -0.27546567	      0.00000000	      0.50000000	      0.00000000	      0.25000000	     79.55477706	      6.29113800	      6.07065307	     76.79332368	      1.34029634	     13.94798683	    -15.95131488	      0.00000000	      0.00000000	     61.88440349	     -9.61586376	      2.22377719	     73.17846413	      1.27720514	    -25.64893802	    -15.13306643	      0.00000000	      0.00000000	    -66.02199863	      0.97848043	      2.76668261	     89.55392462	    -26.02501053	     28.56679323	     91.91268196	     40.64736010	      0.00000000	      0.00000000	     81.80913626	    -48.69143734	     21.59197117	     97.36772200	     48.63416710	      0.00000000	      0.00000000
      5.05500000	    -21.68147813	     -2.25253080	     -5.58612989	      0.07908160	      1.11093109	     -0.27548249	      0.00000000	      0.50000000	      0.00000000	      0.25000000	     78.09841345	      6.09764500	      6.05688879	     74.25833327	      1.29605241	     13.47754122	    -15.62993700	      0.00000000	      0.00000000	     63.07024514	     -9.35064693	      2.75709961	     75.87103616	      1.32419939	    -26.17361934	    -15.44526890	      0.00000000	      0.00000000	    -65.97070918	      0.84062335	      2.53016021	     89.53141463	    -25.79461587	     28.78361258	     91.74406745	     40.58231363	      0.00000000	      0.00000000	     81.72764002	    -48.87730689	     21.83340443	     97.30868698	     48.65647919	      0.00000000	      0.00000000
      5.06000000	    -21.59644431	     -2.44580019	     -5.73356505	      0.07878093	      1.10835354	     -0.27511584	      0.00000000	      0.50000000	      0.00000000	      0.25000000	     76.87427156	      6.15443060	      5.77154401	     71.87913495	      1.25452757	     12.78459146	    -15.83097946	      0.00000000	      0.00000000	     64.66178700	     -9.51836440	      3.36686599	     78.73107471	      1.37411648	    -26.93950553	    -15.63950583	      0.00000000	      0.00000000	    -65.65377884	      0.95559900	      2.54150757	     89.54256185	    -25.14826104	     29.21509674	     91.08881813	     40.36819080	      0.00000000	      0.00000000	     81.39374944	    -49.63774047	     22.42838788	     97.23529143	     48.72918841	      0.00000000	      0.00000000
      5.06500000	    -21.39340229	     -2.22184296	     -5.77489184	      0.07864680	      1.10605564	     -0.27529409	      0.00000000	      0.50000000	      0.00000000	      0.25000000	     75.57287718	      5.87902928	      5.84214928	     69.58955138	      1.21456680	     11.94163589	    -15.71276216	      0.00000000	      0.00000000	     65.93824695	     -9.22458798	      3.65648297	     81.32707023	      1.41942515	    -27.44968569	    -15.85499885	      0.00000000	      0.00000000	    -65.45462613	      0.90006713	      2.06114736	     89.53722434	    -24.56699900	     29.43841324	     90.48844393	     40.13352131	      0.00000000	      0.00000000	     81.09450977	    -50.33249962	     22.90669896	     97.37737367	     48.83155331	      0.00000000	      0.00000000
      5.07000000	    -21.14996928	     -1.85393005	     -5.73605283	      0.07858412	      1.10374927	     -0.27543050	      0.00000000	      0.50000000	      0.00000000	      0.25000000	     74.27224377	      5.44984605	      6.01239629	     67.43325438	      1.17693231	     11.09237416	    -15.42453584	      0.00000000	      0.00000000	     67.12592070	     -8.80522741	      3.78097417	     83.80037247	      1.46259241	    -27.90099514	    -16.02406735	      0.00000000	      0.00000000	    -65.31095739	      0.84724670	      0.57373087	     89.54523642	    -22.74604421	     29.45713450	     89.35998361	     39.29548974	      0.00000000	      0.00000000	     80.56299835	    -52.56119781	     23.23410300	     98.17459993	     49.14026739	      0.00000000	      0.00000000
